<svg width="512" height="512" viewBox="0 0 512 512" fill="none" xmlns="http://www.w3.org/2000/svg">
  <rect width="512" height="512" rx="112" fill="#07100F"/>
  <path d="M154 70H358L442 154V358L358 442H154L70 358V154L154 70Z" fill="#55F2E4"/>
  <path d="M164 165H217V294C217 345 190 373 143 373C128 373 115 371 104 366V319C114 323 124 325 134 325C154 325 164 313 164 288V165Z" fill="#07100F"/>
  <path d="M250 165H323C366 165 392 188 392 224C392 249 379 268 356 277L402 369H343L306 286H303V369H250V165ZM303 245H318C332 245 339 238 339 225C339 212 332 205 318 205H303V245Z" fill="#07100F"/>
  <path d="M96 256H55M457 256H416M256 96V55M256 457V416" stroke="#07100F" stroke-width="16" stroke-linecap="round"/>
</svg>
